<svg id="Layer_1" data-name="Layer 1" xmlns="http://www.w3.org/2000/svg" viewBox="0 0 265.561 349.466"><path id="T_of_P" data-name="T of P" d="M5.5,349.466h11V53.016a208.031,208.031,0,0,1,2.24-30.35q1.275-8.6,3.26-17.2H0q2,8.595,3.26,17.2A208.031,208.031,0,0,1,5.5,53.016v296.45Z" fill="#fff"/><path id="Speaker" d="M73.04,129.586a2.563,2.563,0,0,0-1.09.44,2.755,2.755,0,0,0-1.05,1.41L66.78,144.6l-7.24,4.99a2.636,2.636,0,0,0-.73,3.64l7.33,10.63a2.624,2.624,0,0,0,3.66.61l7.24-4.99,13.75.81a2.766,2.766,0,0,0,1.69-.48,2.64,2.64,0,0,0,.8-.86,2.568,2.568,0,0,0-.07-2.77l-17.6-25.52A2.573,2.573,0,0,0,73.04,129.586Z" fill="#fff"/><path id="Eclipse_1" data-name="Eclipse 1" d="M77.3,111.7a33.733,33.733,0,0,1,12.12-7.18,32.682,32.682,0,0,1,13.86-1.54,31.48,31.48,0,0,1,27.92,26.78,33.164,33.164,0,0,1-.92,13.96,34.029,34.029,0,0,1-17.72,21.19l-3.57-7.7a25.124,25.124,0,0,0,13.07-15.63,24.425,24.425,0,0,0,.68-10.3,23.5,23.5,0,0,0-3.65-9.52,23.19,23.19,0,0,0-16.95-10.24,24.186,24.186,0,0,0-10.22,1.14,24.856,24.856,0,0,0-8.94,5.3Z" fill="#fff"/><path id="Eclipse_2" data-name="Eclipse 2" d="M135.33,85.9a69.26,69.26,0,0,1,27.38,16.7,62.291,62.291,0,0,1,15.83,26.59,61.411,61.411,0,0,1,.9,30.77,67.183,67.183,0,0,1-14.23,28.36,74.938,74.938,0,0,1-26.31,19.86,78.889,78.889,0,0,1-32.74,7.11A75.035,75.035,0,0,1,74,208.116a66.864,66.864,0,0,1-24.67-19.91l9.51-6.31a56.255,56.255,0,0,0,20.73,16.73,63.041,63.041,0,0,0,27.02,6.03,66.336,66.336,0,0,0,27.52-5.97A63.142,63.142,0,0,0,156.22,182a56.4,56.4,0,0,0,11.96-23.83,51.578,51.578,0,0,0-.75-25.86,52.353,52.353,0,0,0-13.31-22.34,58.213,58.213,0,0,0-23-14.03Z" fill="#409bd6"/><path id="Eclipse_3" data-name="Eclipse 3" d="M39.44,77.326a93.021,93.021,0,0,1,58.67-39.97,102.3,102.3,0,0,1,72.46,11.79,104.824,104.824,0,0,1,47.03,57.16,95.706,95.706,0,0,1-3.85,71.6l-11.13-5.54a83.868,83.868,0,0,0,3.38-62.76A91.869,91.869,0,0,0,164.77,59.5a89.7,89.7,0,0,0-63.52-10.33,81.535,81.535,0,0,0-51.43,35.04Z" fill="#fff"/><path id="Eclipse_4" data-name="Eclipse 4" d="M99.46,4.4c32.48-7.85,65.76-5.13,94.26,7.7s50.5,35,62.3,62.79,12.68,59.49,2.5,89.81-30.81,57.4-58.42,76.71l-6.46-8.79c25.32-17.7,44.24-42.54,53.58-70.35s8.53-56.89-2.29-82.37-30.99-45.81-57.14-57.58-56.67-14.26-86.45-7.06Z" fill="#409bd6"/></svg>